<svg xmlns="http://www.w3.org/2000/svg" viewBox="0 0 15.2 15.2"><defs><style>.b940f2ac-3c94-4b30-9a60-7b8b11b629eb{fill:#f78f8f;}.fb693a99-54e3-4887-88eb-c6fc599717fb{fill:#c74343;}.a2b33ac7-4fae-4bc7-83a9-63de93f7964b{fill:#ffeea3;}.a86aee2a-6221-4b08-8529-35e75fd9bd7e{fill:#ba9b48;}.a48a9431-757d-420e-a896-c41f917a20a9{fill:#bae0bd;}.b8e386d7-f534-4fa6-8428-a05793af3aee{fill:#5e9c76;}.f13ec5bc-a788-419c-8632-62b724876cd6{fill:#8bb7f0;}.ba6e6368-7c1f-47c5-8026-daa4fe4e03c0{fill:#4e7ab5;}</style></defs><title>Recurso 1</title><g id="a3919154-30df-4504-9c09-d3980c1e3044" data-name="Capa 2"><g id="e97f38a1-d100-4700-8dfa-e2137fd807de" data-name="Capa 1"><path class="b940f2ac-3c94-4b30-9a60-7b8b11b629eb" d="M1,4A7.48,7.48,0,0,1,12.62,2L10.8,3.86A4.93,4.93,0,0,0,3.13,5.59Z"/><path class="fb693a99-54e3-4887-88eb-c6fc599717fb" d="M7.6.2A7.34,7.34,0,0,1,12.47,2L10.79,3.73a5,5,0,0,0-7.7,1.71L1.16,4A7.39,7.39,0,0,1,7.6.2m0-.2A7.6,7.6,0,0,0,.9,4L3.17,5.75A4.82,4.82,0,0,1,10.8,4l2-2A7.54,7.54,0,0,0,7.6,0Z"/><path class="b940f2ac-3c94-4b30-9a60-7b8b11b629eb" d="M3,5.62a5,5,0,0,1,4.39-3V.2A7.41,7.41,0,0,0,1.06,4.14Z"/><path class="a2b33ac7-4fae-4bc7-83a9-63de93f7964b" d="M.84,10.84A7.49,7.49,0,0,1,.1,7.6c0-.11,0-.21,0-.32A7.34,7.34,0,0,1,.93,4.17L3.05,5.78A4.91,4.91,0,0,0,2.7,7.6,4.83,4.83,0,0,0,3,9.31Z"/><path class="a86aee2a-6221-4b08-8529-35e75fd9bd7e" d="M1,4.32l2,1.5A4.93,4.93,0,0,0,2.6,7.6a5,5,0,0,0,.29,1.67l-2,1.42A7.36,7.36,0,0,1,.2,7.6c0-.11,0-.21,0-.32a7.25,7.25,0,0,1,.76-3M.9,4A7.48,7.48,0,0,0,0,7.28c0,.1,0,.21,0,.32A7.56,7.56,0,0,0,.8,11L3.13,9.34a4.78,4.78,0,0,1,0-3.59L.9,4Z"/><path class="a2b33ac7-4fae-4bc7-83a9-63de93f7964b" d="M3,9.46A5,5,0,0,1,2.6,7.6a5,5,0,0,1,.41-2L1.06,4.14A7.33,7.33,0,0,0,.2,7.6,7.42,7.42,0,0,0,1,10.87Z"/><path class="a48a9431-757d-420e-a896-c41f917a20a9" d="M7.6,15.1A7.45,7.45,0,0,1,.93,11L3.09,9.5a4.89,4.89,0,0,0,7.49,2l2,1.71A7.46,7.46,0,0,1,7.6,15.1Z"/><path class="b8e386d7-f534-4fa6-8428-a05793af3aee" d="M3,9.65A5,5,0,0,0,7.6,12.6a4.92,4.92,0,0,0,3-1l1.85,1.59A7.39,7.39,0,0,1,1.06,11.05l2-1.4m.09-.31L.8,11A7.59,7.59,0,0,0,12.73,13.2l-2.15-1.84a4.79,4.79,0,0,1-7.45-2Z"/><path class="a48a9431-757d-420e-a896-c41f917a20a9" d="M10.74,11.49A5,5,0,0,1,3,9.46L1,10.87a7.4,7.4,0,0,0,11.62,2.2Z"/><path class="f13ec5bc-a788-419c-8632-62b724876cd6" d="M10.74,11.36a5,5,0,0,0,1.43-2,4.33,4.33,0,0,0,.17-.51l0-.13H7.7V6.1H15a7.63,7.63,0,0,1,.15,1.5,7.49,7.49,0,0,1-2.37,5.46Z"/><path class="ba6e6368-7c1f-47c5-8026-daa4fe4e03c0" d="M14.86,6.2a7.31,7.31,0,0,1-2.14,6.73l-1.83-1.57a5,5,0,0,0,1.38-2,5.19,5.19,0,0,0,.17-.52l.06-.25H7.8V6.2h7.06M15,6H7.6V8.8h4.64a4.16,4.16,0,0,1-.16.5,4.89,4.89,0,0,1-1.5,2.06l2.15,1.84A7.59,7.59,0,0,0,15.2,7.6,7.69,7.69,0,0,0,15,6Z"/><path class="f13ec5bc-a788-419c-8632-62b724876cd6" d="M12.5,7.6v1a5,5,0,0,1-1.76,2.89l1.84,1.58A7.35,7.35,0,0,0,15,7.6Z"/></g></g></svg>